<?xml version="1.0" encoding="UTF-8"?>
<svg xmlns="http://www.w3.org/2000/svg" width="101.520000pt" height="101.520000pt" viewBox="0 0 101.520000 101.520000">
<g transform="translate(0.000000,101.520000) scale(0.024000,-0.024000)">
<path d="M890 3550 l0 -510 98 0 c54 0 101 -2 104 -6 3 -3 -25 -87 -63 -186
-38 -100 -69 -189 -69 -199 0 -9 -4 -19 -8 -21 -10 -4 -472 -1238 -472 -1260
0 -10 -4 -18 -8 -18 -4 0 -16 -24 -26 -54 l-18 -53 -121 -7 c-66 -3 -162 -6
-214 -6 l-93 0 0 -510 0 -510 935 0 935 0 0 340 0 340 -160 0 -160 0 -2 -172
-3 -173 -595 0 -595 0 0 180 0 180 143 5 144 5 80 210 c44 116 86 224 93 240
7 17 37 91 65 165 29 74 152 394 275 710 403 1038 435 1121 435 1125 0 3 -81
5 -180 5 l-180 0 0 180 0 180 880 0 880 0 0 -180 0 -180 -180 0 c-99 0 -180
-4 -180 -8 0 -5 38 -105 84 -223 46 -118 206 -531 356 -919 151 -388 277 -707
282 -708 4 -2 6 -7 4 -11 -3 -3 46 -137 108 -296 l113 -290 142 -3 141 -3 0
-184 0 -185 -592 2 -593 3 -3 173 -2 172 -163 -2 -162 -3 -3 -315 c-1 -173 0
-325 3 -337 l5 -23 930 0 930 0 -2 507 -3 508 -205 5 -205 5 -42 110 c-23 61
-47 124 -54 140 -6 17 -13 35 -14 40 -3 13 -449 1199 -466 1240 -7 17 -13 35
-14 40 -2 6 -21 59 -44 119 -23 60 -41 110 -41 112 0 2 47 4 105 4 l105 0 0
510 0 510 -1220 0 -1220 0 0 -510z" fill="#1D2259"/>
<path d="M2001 3433 c-57 -148 -134 -347 -171 -443 -158 -408 -204 -528 -225
-585 -23 -62 -364 -947 -430 -1115 -77 -197 -164 -323 -258 -369 l-42 -21 303
0 303 0 -20 26 c-33 42 -26 88 34 246 31 78 81 207 111 286 l56 142 446 0 447
0 54 -137 c30 -76 78 -199 109 -273 64 -160 74 -219 43 -261 l-22 -29 298 0
c287 1 297 1 266 18 -46 25 -115 94 -158 157 -43 65 -71 128 -130 286 -24 64
-63 167 -88 230 -25 63 -91 233 -147 379 -56 146 -129 335 -162 420 -33 85
-78 202 -101 260 -22 58 -64 168 -94 245 -30 77 -65 167 -78 200 -38 101 -100
263 -164 428 -33 86 -61 162 -61 167 0 39 -29 -24 -119 -257z m163 -820 c27
-71 75 -195 106 -278 32 -82 74 -193 95 -245 20 -52 48 -123 61 -157 13 -34
24 -64 24 -67 0 -3 -153 -6 -341 -6 l-341 0 6 26 c4 15 39 108 78 208 85 217
162 416 212 549 21 53 41 97 44 97 4 0 29 -57 56 -127z" fill="#AB0520"/>
</g>
</svg>